<svg width="538" height="131" viewBox="0 0 538 131" fill="none" xmlns="http://www.w3.org/2000/svg">
<g clip-path="url(#clip0_115_132)">
<rect x="176.296" y="-8.89258" width="36.3592" height="213.052" transform="rotate(12 176.296 -8.89258)" fill="black"/>
<rect x="393.296" y="-8.89258" width="36.3592" height="213.052" transform="rotate(12 393.296 -8.89258)" fill="black"/>
<rect x="33.2961" y="-8.89258" width="36.3592" height="213.052" transform="rotate(12 33.2961 -8.89258)" fill="black"/>
<rect x="248.296" y="-8.89258" width="36.3592" height="213.052" transform="rotate(12 248.296 -8.89258)" fill="black"/>
<rect x="465.296" y="-8.89258" width="36.3592" height="213.052" transform="rotate(12 465.296 -8.89258)" fill="black"/>
<rect x="106.296" y="-8.89258" width="36.3592" height="213.052" transform="rotate(12 106.296 -8.89258)" fill="black"/>
<rect x="321.296" y="-8.89258" width="36.3592" height="213.052" transform="rotate(12 321.296 -8.89258)" fill="black"/>
<rect x="538.296" y="-8.89258" width="36.3592" height="213.052" transform="rotate(12 538.296 -8.89258)" fill="black"/>
</g>
<defs>
<clipPath id="clip0_115_132">
<rect width="538" height="131" fill="white"/>
</clipPath>
</defs>
</svg>
